:FULLY-SPECIFIED
:FORCE-ALL-JOINTS-BE-3DOF
:DEGREES
374
root 6.17376 16.5059 -15.8434 8.37292 -18.0546 -5.60175
lfemur -41.8418 22.7946 -10.7562
ltibia 76.7054 0 0
lfoot -11.4102 -3.92496 0
ltoes 14.9416 0 0
rfemur -28.1637 -7.27242 31.9228
rtibia 45.475 0 0
rfoot -19.8123 1.31657 0
rtoes 17.5055 0 0
lowerback 5.25382 1.28497 2.68472
upperback 2.63711 1.81792 1.11087
thorax -0.191155 0.922163 -0.466765
lowerneck -8.15764 -0.950507 2.67529
upperneck -0.541749 -1.56749 2.20364
head 1.19658 -0.736829 0.16603
lclavicle -2.16203e-014 -1.86046e-014 0
lhumerus -41.0878 -21.2597 95.5287
lradius 57.5922 0 0
lwrist 21.3747 0 0
lhand -21.2394 3.43875 0
lfingers 7.12502 0 0
lthumb 5.15322 33.4921 0
rclavicle -2.16203e-014 -1.86046e-014 0
rhumerus -38.7663 11.2311 -94.3309
rradius 63.2956 0 0
rwrist 7.92274 0 0
rhand -9.02476 -20.5558 0
rfingers 7.12502 0 0
rthumb 16.9243 -769.91 0
375
root 6.12611 16.5055 -15.6993 8.19164 -19.0917 -5.58154
lfemur -41.7161 22.4787 -10.7271
ltibia 76.3689 0 0
lfoot -11.4099 -3.70387 0
ltoes 14.9828 0 0
rfemur -28.4869 -7.66778 32.0914
rtibia 46.3442 0 0
rfoot -19.5471 1.48349 0
rtoes 17.8707 0 0
lowerback 5.27797 1.38279 2.64515
upperback 2.61612 1.94398 1.05021
thorax -0.223216 0.98505 -0.516282
lowerneck -8.14884 -0.771486 2.79819
upperneck -0.408383 -1.33966 2.10106
head 1.23884 -0.62095 0.117595
lclavicle -2.15189e-014 -1.81258e-014 0
lhumerus -41.1091 -20.9319 95.3378
lradius 57.4276 0 0
lwrist 21.3986 0 0
lhand -21.4924 3.34138 0
lfingers 7.12502 0 0
lthumb 4.91078 33.4265 0
rclavicle -2.15189e-014 -1.81258e-014 0
rhumerus -39.1206 11.206 -94.548
rradius 63.2101 0 0
rwrist 8.01638 0 0
rhand -9.00122 -20.3893 0
rfingers 7.12502 0 0
rthumb 16.9472 -769.753 0
376
root 6.07904 16.5042 -15.5542 7.99834 -20.1353 -5.53579
lfemur -41.5316 22.1365 -10.7008
ltibia 75.9525 0 0
lfoot -11.4197 -3.43218 0
ltoes 14.9743 0 0
rfemur -28.8717 -8.09678 32.2274
rtibia 47.3039 0 0
rfoot -19.2177 1.63959 0
rtoes 18.3098 0 0
lowerback 5.30491 1.48508 2.59182
upperback 2.59548 2.07524 0.9803
thorax -0.256187 1.05047 -0.568118
lowerneck -8.13278 -0.593987 2.92946
upperneck -0.271814 -1.11403 1.99787
head 1.2818 -0.506204 0.0678072
lclavicle -2.14086e-014 -1.75543e-014 0
lhumerus -41.1468 -20.6218 95.159
lradius 57.2534 0 0
lwrist 21.4174 0 0
lhand -21.7116 3.25373 0
lfingers 7.12502 0 0
lthumb 4.70079 33.3665 0
rclavicle -2.14086e-014 -1.75543e-014 0
rhumerus -39.4571 11.1854 -94.7306
rradius 63.144 0 0
rwrist 8.0978 0 0
rhand -9.02022 -20.2224 0
rfingers 7.12502 0 0
rthumb 16.929 -769.597 0
377
root 6.03252 16.502 -15.4083 7.79391 -21.1826 -5.46616
lfemur -41.292 21.7698 -10.677
ltibia 75.4609 0 0
lfoot -11.4395 -3.11305 0
ltoes 14.9187 0 0
rfemur -29.3135 -8.55699 32.3318
rtibia 48.3474 0 0
rfoot -18.8279 1.78485 0
rtoes 18.817 0 0
lowerback 5.33441 1.59141 2.52566
upperback 2.57518 2.21124 0.901759
thorax -0.289994 1.1182 -0.622092
lowerneck -8.10989 -0.418204 3.06848
upperneck -0.132404 -0.890838 1.89422
head 1.32534 -0.39271 0.016799
lclavicle -2.12904e-014 -1.68957e-014 0
lhumerus -41.1998 -20.3291 94.992
lradius 57.0704 0 0
lwrist 21.4312 0 0
lhand -21.8986 3.17517 0
lfingers 7.12502 0 0
lthumb 4.52164 33.3116 0
rclavicle -2.12904e-014 -1.68957e-014 0
rhumerus -39.7766 11.1688 -94.88
rradius 63.0964 0 0
rwrist 8.1676 0 0
rhand -9.07972 -20.0553 0
rfingers 7.12502 0 0
rthumb 16.8717 -769.441 0
378
root 5.98648 16.4989 -15.2617 7.57923 -22.231 -5.3743
lfemur -41.0013 21.3807 -10.6558
ltibia 74.8989 0 0
lfoot -11.4685 -2.74963 0
ltoes 14.8184 0 0
rfemur -29.808 -9.04597 32.406
rtibia 49.4681 0 0
rfoot -18.3815 1.91927 0
rtoes 19.3863 0 0
lowerback 5.36626 1.70141 2.44757
upperback 2.55518 2.35148 0.815221
thorax -0.324562 1.18799 -0.678024
lowerneck -8.08055 -0.24433 3.21463
upperneck 0.00948528 -0.670308 1.79025
head 1.36938 -0.280585 -0.0352989
lclavicle -2.11653e-014 -1.61555e-014 0
lhumerus -41.2673 -20.0532 94.8365
lradius 56.8791 0 0
lwrist 21.4399 0 0
lhand -22.055 3.10506 0
lfingers 7.12502 0 0
lthumb 4.37172 33.2614 0
rclavicle -2.11653e-014 -1.61555e-014 0
rhumerus -40.0798 11.1557 -94.9979
rradius 63.0663 0 0
rwrist 8.22639 0 0
rhand -9.1777 -19.8886 0
rfingers 7.12502 0 0
rthumb 16.7773 -769.286 0
